<?xml version="1.0" encoding="utf-8"?>
<!-- Generator: Adobe Illustrator 24.2.3, SVG Export Plug-In . SVG Version: 6.00 Build 0)  -->
<svg version="1.1" id="Capa_1" xmlns="http://www.w3.org/2000/svg" xmlns:xlink="http://www.w3.org/1999/xlink" x="0px" y="0px"
	 viewBox="0 0 800 800" style="enable-background:new 0 0 800 800;" xml:space="preserve">
<style type="text/css">
	.st0{fill:none;stroke:#000000;stroke-miterlimit:10;}
</style>
<g>
	<path class="st0" d="M1697.5-704.4c142.2,409,104.1,977-207.9,1550.5S762.7,2082.2,200.1,2048.6s-1358.3-802.7-1411-1363.8
		C-1263.6,123.6-473.4-269.5-53-644.9c420.4-375.3,495.5-459.6,860.2-472S1555.3-1113.4,1697.5-704.4s104.1,977-207.9,1550.5"/>
	<path class="st0" d="M1666.7-679c139.1,400.1,101.8,955.7-203.4,1516.8S752.2,2047,201.8,2014.2
		C-348.6,1981.3-1126.9,1229-1178.5,680C-1230,131.1-457-253.6-45.7-620.8s484.7-449.6,841.5-461.7
		C1152.5-1094.6,1527.6-1079,1666.7-679c139.1,400.1,101.8,955.7-203.4,1516.8"/>
	<path class="st0" d="M1635.9-653.6c136,391.2,99.5,934.5-198.9,1483.1S741.7,2011.8,203.5,1979.7
		C-334.6,1947.6-1095.6,1212-1146,675.2C-1196.5,138.5-440.6-237.6-38.4-596.6s474-439.6,822.8-451.4
		C1133.2-1059.9,1499.9-1044.7,1635.9-653.6s99.5,934.5-198.9,1483.1"/>
	<path class="st0" d="M1605.1-628.1c132.9,382.3,97.3,913.3-194.3,1449.4s-679.5,1155.5-1205.4,1124
		c-525.9-31.4-1269.7-750.3-1318.9-1274.9c-49.4-524.5,689.3-892,1082.3-1242.9s463.2-429.6,804.1-441.2S1472.2-1010.4,1605.1-628.1
		s97.3,913.3-194.3,1449.4"/>
	<path class="st0" d="M1574.4-602.7c129.8,373.4,95,892-189.8,1415.7S720.9,1941.6,207.2,1910.9
		C-306.6,1880.2-1033,1178-1081.1,665.7s673.4-871.3,1057.3-1214C360-891.1,428.5-968,761.5-979.3S1444.6-976.1,1574.4-602.7
		s95,892-189.8,1415.7"/>
	<path class="st0" d="M1543.6-577.3c126.7,364.5,92.8,870.8-185.3,1382S710.4,1906.4,208.9,1876.5
		c-501.4-30-1210.6-715.4-1257.6-1215.6c-47-500.1,657.3-850.6,1032.1-1185.1C358.1-858.8,425-933.8,750.1-944.9
		C1075.1-956,1416.9-941.8,1543.6-577.3s92.8,870.8-185.3,1382"/>
	<path class="st0" d="M1512.8-551.9c123.6,355.6,90.5,849.6-180.8,1348.3C1060.7,1295.2,699.9,1871.3,210.7,1842
		c-489.2-29.2-1181.1-698-1226.9-1185.9C-1062.1,168.2-375-173.7-9.3-500.1c365.6-326.4,430.9-399.6,748-410.4
		S1389.2-907.5,1512.8-551.9s90.5,849.6-180.8,1348.3"/>
	<path class="st0" d="M1482-526.4c120.5,346.7,88.2,828.3-176.3,1314.6s-616.3,1048-1093.3,1019.5S-939.2,1127.2-983.9,651.4
		C-1028.5,175.6-358.5-157.7-2.1-476C354.4-794.2,418-865.6,727.2-876.1S1361.5-873.2,1482-526.4
		c120.5,346.7,88.2,828.3-176.3,1314.6"/>
	<path class="st0" d="M1451.2-501c117.4,337.8,86,807.1-171.7,1280.9S679,1801,214.2,1773.2s-1122-663.1-1165.6-1126.6
		C-994.9,183-342.1-141.8,5.2-451.8c347.3-310.1,409.3-379.6,710.6-389.9C1017.1-852,1333.8-838.8,1451.2-501
		c117.4,337.8,86,807.1-171.7,1280.9"/>
	<path class="st0" d="M1420.5-475.6c114.3,328.9,83.7,785.8-167.2,1247.2S668.5,1765.8,216,1738.8s-1092.5-645.6-1134.9-1097
		C-961.3,190.5-325.7-125.8,12.5-427.7S411-797.4,704.4-807.3C997.7-817.3,1306.1-804.5,1420.5-475.6
		c114.3,328.9,83.7,785.8-167.2,1247.2"/>
	<path class="st0" d="M1389.7-450.2C1501-130.1,1471.1,314.4,1227,763.3s-568.9,967.4-1009.2,941.1s-1063-628.2-1104.2-1067.3
		C-927.7,197.9-309.3-109.8,19.7-403.6c329-293.7,387.8-359.7,673.2-369.4C978.3-782.6,1278.4-770.2,1389.7-450.2
		C1501-130.1,1471.1,314.4,1227,763.3"/>
	<path class="st0" d="M1358.9-424.7c108.2,311.2,79.2,743.4-158.2,1179.7c-237.4,436.4-553.1,940.5-981.2,914.9
		c-428-25.5-1033.4-610.7-1073.5-1037.6c-40.1-427,561.1-726.1,881-1011.7s377-349.7,654.5-359.1C959-748,1250.7-735.9,1358.9-424.7
		c108.2,311.2,79.2,743.4-158.2,1179.7"/>
	<path class="st0" d="M1328.1-399.3c105.1,302.3,76.9,722.1-153.7,1146s-537.3,913.6-953.1,888.8s-1003.9-593.3-1042.9-1008
		S-276.5-77.9,34.3-355.3S400.5-695,670.1-704.2C939.6-713.3,1223-701.6,1328.1-399.3s76.9,722.1-153.7,1146"/>
	<path class="st0" d="M1297.3-373.9c102,293.4,74.7,700.9-149.1,1112.3c-223.8,411.5-521.5,886.7-925.1,862.6
		c-403.6-24.1-974.4-575.8-1012.2-978.4C-827,220.2-260.1-61.9,41.6-331.2C343.2-600.4,397-660.9,658.7-669.8
		C920.3-678.7,1195.3-667.3,1297.3-373.9S1372,327,1148.2,738.4"/>
	<path class="st0" d="M1266.5-348.5c98.9,284.5,72.4,679.6-144.6,1078.6S616.2,1590,224.8,1566.6S-720,1008.3-756.7,617.9
		s513-663.9,805.5-925s344.7-319.7,598.4-328.3C900.9-644,1167.7-632.9,1266.5-348.5c98.9,284.5,72.4,679.6-144.6,1078.6"/>
	<path class="st0" d="M1235.8-323c95.8,275.6,70.1,658.4-140.1,1044.9s-489.9,833-869,810.4c-379.1-22.7-915.3-540.9-950.9-919.1
		S-227.2-30,56.1-282.9S390-592.6,635.8-601C881.6-609.3,1140-598.6,1235.8-323s70.1,658.4-140.1,1044.9"/>
	<path class="st0" d="M1205-297.6c92.7,266.7,67.9,637.2-135.6,1011.2s-474.1,806.1-841,784.2c-366.9-21.9-885.8-523.5-920.2-889.4
		c-34.4-366,481-622.4,755.2-867.2s323.2-299.7,561-307.8C862.2-574.7,1112.3-564.3,1205-297.6s67.9,637.2-135.6,1011.2"/>
	<path class="st0" d="M1174.2-272.2c89.6,257.8,65.6,615.9-131.1,977.5s-458.3,779.3-813,758.1s-856.3-506-889.5-859.8
		C-692.6,249.9-194.4,2,70.7-234.7c265-236.6,312.3-289.7,542.2-297.5C842.9-540,1084.6-530,1174.2-272.2s65.6,615.9-131.1,977.5"/>
	<path class="st0" d="M1143.4-246.7C1230,2.2,1206.8,347.9,1016.9,697c-189.9,349.2-442.5,752.4-785,732
		c-342.5-20.5-826.8-488.6-858.8-830.1C-659,257.3-178,17.9,77.9-210.5C333.8-439,379.5-490.3,601.5-497.8
		C823.5-505.4,1056.9-495.7,1143.4-246.7C1230,2.2,1206.8,347.9,1016.9,697"/>
	<path class="st0" d="M1112.6-221.3c83.4,240,61.1,573.4-122,910.1c-183.1,336.6-426.7,725.5-756.9,705.8
		c-330.2-19.7-797.2-471.1-828.2-800.5C-625.4,264.7-161.6,33.9,85.2-186.4s290.8-269.7,504.9-277
		C804.1-470.7,1029.2-461.4,1112.6-221.3c83.4,240,61.1,573.4-122,910.1"/>
	<path class="st0" d="M1081.9-195.9c80.4,231.1,58.8,552.2-117.5,876.4s-410.9,698.7-728.9,679.7S-532.2,906.5-562,589.4
		C-591.8,272.1-145.2,49.9,92.5-162.3C330.1-374.4,372.5-422,578.7-429C784.8-436,1001.5-427,1081.9-195.9
		c80.4,231.2,58.8,552.2-117.5,876.4"/>
	<path class="st0" d="M1051.1-170.5c77.3,222.3,56.6,531-113,842.7S543,1344,237.3,1325.7c-305.8-18.3-738.2-436.2-766.8-741.2
		S-128.7,65.8,99.8-138.1c228.5-204,269.3-249.8,467.5-256.5C765.4-401.4,973.8-392.7,1051.1-170.5c77.3,222.3,56.6,531-113,842.7"
		/>
	<path class="st0" d="M1020.3-145c74.2,213.4,54.3,509.7-108.5,809C749.1,963.2,532.6,1308.8,239,1291.3
		c-293.5-17.5-708.7-418.8-736.2-711.5C-524.6,287-112.3,81.8,107-114s258.5-239.8,448.8-246.2C746.1-366.7,946.1-358.4,1020.3-145
		s54.3,509.7-108.5,809"/>
	<path class="st0" d="M989.5-119.6c71.1,204.5,52,488.5-103.9,775.3c-156,286.8-363.5,618-644.8,601.2
		C-40.5,1240.1-438.3,855.5-464.7,575C-491,294.4-95.9,97.8,114.3-89.9s247.8-229.8,430.1-236C726.7-332,918.4-324.1,989.5-119.6
		s52,488.5-103.9,775.3"/>
	<path class="st0" d="M958.7-94.2c68,195.6,49.8,467.3-99.4,741.6s-347.7,591.2-616.7,575.1C-26.5,1206.4-407,838.6-432.2,570.2
		C-457.4,301.8-79.5,113.8,121.6-65.7s237-219.8,411.4-225.7C707.4-297.4,890.7-289.8,958.7-94.2s49.8,467.3-99.4,741.6"/>
	<path class="st0" d="M928-68.8c64.9,186.7,47.5,446-94.9,707.8s-331.9,564.3-588.7,549s-620.1-366.4-644.1-622.6
		C-423.8,309.2-63,129.7,128.9-41.6S355-251.4,521.5-257.1C688-262.7,863.1-255.5,928-68.8s47.5,446-94.9,707.8"/>
	<path class="st0" d="M897.2-43.3c61.8,177.8,45.2,424.8-90.4,674.1c-135.6,249.4-316.1,537.4-560.7,522.8s-590.5-349-613.5-593
		c-22.9-244,320.7-414.9,503.5-578.1s215.4-199.8,374-205.2C668.7-228.1,835.4-221.1,897.2-43.3s45.2,424.8-90.4,674.1"/>
	<path class="st0" d="M866.4-17.9c58.7,168.9,43,403.5-85.9,640.4S480.2,1133,247.9,1119.2c-232.4-13.9-561-331.5-582.8-563.3
		C-356.7,324.1-30.3,161.7,143.4,6.7C317-148.4,348-183.2,498.7-188.3C649.3-193.4,807.7-186.8,866.4-17.9s43,403.5-85.9,640.4"/>
	<path class="st0" d="M835.6,7.5c55.6,160,40.7,382.3-81.4,606.7s-284.5,483.7-504.6,470.5C29.5,1071.5-281.9,770.6-302.5,551
		C-323.1,331.5-13.9,177.7,150.7,30.8C315.2-116.1,344.5-149,487.3-153.9C630-158.7,780-152.5,835.6,7.5s40.7,382.3-81.4,606.7"/>
	<path class="st0" d="M804.8,32.9C857.4,184.1,843.3,394,728,606s-268.7,456.8-476.6,444.4s-502-296.6-521.4-504
		C-289.5,338.9,2.5,193.6,157.9,54.9s183.2-169.8,317.9-174.4C610.6-124.1,752.3-118.2,804.8,32.9C857.4,184.1,843.3,394,728,606"/>
	<path class="st0" d="M774.1,58.4c49.4,142.2,36.2,339.8-72.3,539.3S449,1027.6,253.3,1015.9c-195.7-11.7-472.4-279.2-490.8-474.4
		C-255.9,346.4,19,209.6,165.2,79.1C311.4-51.5,337.6-80.8,464.4-85.1S724.6-83.9,774.1,58.4c49.4,142.2,36.2,339.8-72.3,539.3"/>
	<path class="st0" d="M743.3,83.8c46.4,133.4,33.9,318.6-67.8,505.6S438.5,992.5,255,981.5s-442.9-261.7-460.1-444.7
		S35.4,225.6,172.5,103.2S334.1-46.7,453-50.7C571.9-54.8,696.9-49.6,743.3,83.8c46.4,133.4,33.9,318.6-67.8,505.6"/>
	<path class="st0" d="M712.5,109.2c43.3,124.5,31.7,297.3-63.3,471.9c-94.9,174.6-221.2,376.2-392.5,366
		C85.5,936.8-156.6,702.8-172.7,532c-16-170.8,224.5-290.4,352.4-404.7C307.7,13.1,330.6-12.5,441.5-16.3
		C552.5-20.1,669.2-15.3,712.5,109.2s31.7,297.3-63.3,471.9"/>
	<path class="st0" d="M681.7,134.6c40.2,115.6,29.4,276.1-58.8,438.2S417.5,922.1,258.5,912.6s-383.9-226.8-398.8-385.4
		C-155.1,368.6,68.2,257.5,187,151.5C305.8,45.4,327.1,21.6,430.1,18.1C533.2,14.6,641.5,19.1,681.7,134.6
		c40.2,115.6,29.4,276.1-58.8,438.2"/>
	<path class="st0" d="M650.9,160.1C688,266.8,678,415,596.7,564.6C515.3,714.2,407.1,887,260.3,878.2
		C113.5,869.5-94,668.8-107.8,522.5c-13.8-146.4,192.4-249,302.1-346.9S323.6,55.7,418.7,52.5C513.8,49.2,613.8,53.4,650.9,160.1
		C688,266.8,678,415,596.7,564.6"/>
	<path class="st0" d="M620.2,185.5c34,97.8,24.9,233.6-49.7,370.8c-74.6,137.1-173.8,295.6-308.4,287.5
		c-134.5-8-324.8-191.9-337.4-326.1s176.4-228.2,276.9-318C302.1,110,320.1,89.8,407.3,86.9C494.5,83.9,586.2,87.7,620.2,185.5
		s24.9,233.6-49.7,370.8"/>
	<path class="st0" d="M589.4,210.9c30.9,88.9,22.6,212.4-45.2,337.1s-158,268.7-280.3,261.4C141.5,802.1-31.4,634.9-42.9,512.9
		s160.3-207.5,251.7-289.1s107.7-99.9,187-102.6C475.1,118.6,558.5,122,589.4,210.9S612,423.3,544.2,548"/>
	<path class="st0" d="M558.6,236.3c27.8,80,20.4,191.2-40.7,303.4c-61,112.2-142.2,241.8-252.3,235.3
		C155.5,768.4-0.1,618-10.5,508.2C-20.8,398.3,133.8,321.4,216.1,248s96.9-89.9,168.3-92.3C455.8,153.2,530.8,156.3,558.6,236.3
		s20.4,191.2-40.7,303.4"/>
	<path class="st0" d="M527.8,261.8c24.7,71.1,18.1,169.9-36.2,269.7c-54.3,99.7-126.4,215-224.3,209.1
		C169.5,734.7,31.2,600.9,22,503.4c-9.2-97.6,128.3-166,201.4-231.2c73.1-65.3,86.2-79.9,149.6-82.1S503.1,190.6,527.8,261.8
		c24.7,71.1,18.1,169.9-36.2,269.7"/>
	<path class="st0" d="M497,287.2c21.6,62.2,15.8,148.7-31.6,235.9c-47.5,87.3-110.6,188.1-196.2,183S62.5,584,54.4,498.6
		c-8-85.4,112.2-145.2,176.2-202.3s75.4-69.9,130.9-71.8S475.4,225,497,287.2c21.6,62.2,15.8,148.7-31.6,235.9"/>
	<path class="st0" d="M466.2,312.6c18.5,53.3,13.6,127.4-27.1,202.2S344.3,676,270.9,671.6S93.7,566.9,86.9,493.7
		c-6.9-73.2,96.2-124.5,151-173.4c54.8-49,64.6-59.9,112.2-61.6C397.7,257.2,447.7,259.3,466.2,312.6s13.6,127.4-27.1,202.2"/>
	<path class="st0" d="M435.5,338c15.5,44.5,11.3,106.2-22.6,168.5s-79,134.4-140.2,130.7C211.5,633.6,125.1,550,119.3,489
		c-5.7-61,80.2-103.7,125.9-144.5s53.9-50,93.5-51.3C378.3,291.9,420,293.6,435.5,338c15.5,44.5,11.3,106.2-22.6,168.5"/>
	<path class="st0" d="M404.7,363.5c12.4,35.6,9,85-18.1,134.8c-27.1,49.9-63.2,107.5-112.1,104.6s-118.1-69.8-122.7-118.6
		c-4.6-48.8,64.1-83,100.7-115.6s43.1-40,74.8-41C359,326.5,392.3,327.9,404.7,363.5c12.4,35.6,9,85-18.1,134.8"/>
	<path class="st0" d="M373.9,388.9c9.3,26.7,6.8,63.7-13.6,101.1c-20.3,37.4-47.4,80.6-84.1,78.4c-36.7-2.2-88.6-52.3-92-88.9
		s48.1-62.2,75.5-86.7c27.4-24.5,32.3-30,56.1-30.8C339.6,361.2,364.6,362.2,373.9,388.9c9.3,26.7,6.8,63.7-13.6,101.1"/>
	<path class="st0" d="M343.1,414.3c6.2,17.8,4.5,42.5-9,67.4c-13.6,24.9-31.6,53.7-56.1,52.3c-24.5-1.5-59.1-34.9-61.3-59.3
		c-2.3-24.4,32.1-41.5,50.3-57.8c18.3-16.3,21.5-20,37.4-20.5C320.3,395.8,336.9,396.5,343.1,414.3s4.5,42.5-9,67.4"/>
	<path class="st0" d="M312.3,439.7c3.1,8.9,2.3,21.2-4.5,33.7s-15.8,26.9-28,26.1s-29.5-17.5-30.7-29.6c-1.1-12.2,16-20.7,25.2-28.9
		c9.1-8.2,10.8-10,18.7-10.3C300.9,430.5,309.3,430.9,312.3,439.7c3.1,8.9,2.3,21.2-4.5,33.7"/>
</g>
</svg>
