<svg xmlns="http://www.w3.org/2000/svg" version="1.1" xmlns:xlink="http://www.w3.org/1999/xlink" xmlns:svgjs="http://svgjs.dev/svgjs" viewBox="0 0 800 800" opacity="0.5"><g stroke-width="1" stroke="hsl(0, 0%, 0%)" fill="none"><path d="M1815.9165007105717 -769.5739763929366C1958.076658071188 -360.62060193045863 1919.9859861954792 207.4115515109545 1608.0184237885182 780.9499440770314C1296.0508613815578 1354.4883366431086 881.0779953776246 2017.0230839337573 318.4722011571637 1983.4103079242354C-244.13359306329698 1949.7975319147126 -1039.7774425984726 1180.7472377240883 -1092.4893884696914 619.6086192313214C-1145.2013343409105 58.47000073855452 -354.99077588452747 -334.7144623880886 65.45486097531534 -710.0550608410445C485.9004978351579 -1085.395659294 560.9701601793795 -1169.6264792695508 925.6496684575573 -1182.0262533428609C1290.329176735735 -1194.4260274161707 1673.7563433499558 -1178.5273508554146 1815.9165007105717 -769.5739763929366C1958.076658071188 -360.62060193045863 1919.9859861954792 207.4115515109545 1608.0184237885182 780.9499440770314 "></path><path d="M1785.1357370710161 -744.1486376090464C1924.2054562281405 -344.0855538957526 1886.9428424366865 211.598074470847 1581.7571835603117 772.6682411115744C1276.5715246839372 1333.7384077523016 870.6198079409592 1981.8702257540235 320.2445744644215 1948.988162266448C-230.1306590121162 1916.106098778871 -1008.4779031226141 1163.774289244565 -1060.0439371270675 614.8343363712061C-1111.609971131521 65.894383497847 -338.5779030763638 -318.7425912999561 72.72761124304793 -685.9236115256736C484.0331255624594 -1053.104631751391 557.4708387252847 -1135.5043469448647 914.2225316061104 -1147.634560712233C1270.9742244869367 -1159.7647744796016 1646.0660179138918 -1144.21172132234 1785.1357370710161 -744.1486376090464C1924.2054562281405 -344.0855538957526 1886.9428424366865 211.598074470847 1581.7571835603117 772.6682411115744 "></path><path d="M1754.3549123963044 -718.7230546845312C1890.3341933499369 -327.550261720422 1853.8996376427376 215.78484157136472 1555.4958822969488 764.3867822867423C1257.09212695116 1312.9887230021204 860.1615594691375 1946.7176117149152 322.0168867365228 1914.5662607492854C-216.12778599609192 1882.4149097836553 -977.1784246819118 1146.8015849056665 -1027.5985468195995 610.0602976517157C-1078.0186689572874 73.31901039776471 -322.1650913033559 -302.77047607119835 80.00030047562427 -661.7919180696776C482.1656922546042 -1020.813360068157 553.9714562360334 -1101.3819704795533 902.7953337195077 -1113.2426239409804C1251.6192112029821 -1125.1032774024072 1618.3756314426719 -1109.8958476486405 1754.3549123963044 -718.7230546845312C1890.3341933499369 -327.550261720422 1853.8996376427376 215.78484157136472 1555.4958822969488 764.3867822867423 "></path><path d="M1723.5741487567489 -693.2974412424378C1856.46299150689 -311.0149390275128 1820.8564938839445 219.97163918946057 1529.2346420687422 756.1053539794893C1237.61279025354 1292.2390687695174 849.7033720324721 1911.565028193385 323.78926004378036 1880.144389749701C-202.12485194491137 1848.7237513060172 -945.8788852060534 1129.8289110843466 -995.1530954769755 605.2862894498039C-1044.4273057478977 80.74366781526032 -305.75221849519176 -286.7983303248625 87.27305074335686 -637.6601940961036C480.2983199819057 -988.5220578673448 550.4721347819386 -1067.259563496664 891.3681968680612 -1078.8506566521494C1232.2642589541842 -1090.4417498076348 1590.6853060066078 -1075.5799434573628 1723.5741487567489 -693.2974412424378C1856.46299150689 -311.0149390275128 1820.8564938839445 219.97163918946057 1529.2346420687422 756.1053539794893 "></path><path d="M1692.793324082037 -667.8718583179225C1822.5917286286863 -294.47964685218176 1787.8132890899956 224.1584062899783 1502.9733408053794 747.8238951546573C1218.1333925207632 1271.4893840193358 839.2451235606504 1876.4124141542766 325.5615723158817 1845.7224882325386C-188.12197892888662 1815.0325623108006 -914.5794067653512 1112.8562067454482 -962.7077051695078 600.5122507303131C-1010.8360035736642 88.16829471517804 -289.3394067221841 -270.82621509610476 94.5457399759332 -613.5285006401077C478.4308866740505 -956.2307861841108 546.9727522926876 -1033.1371870313528 879.9409989814585 -1044.4587198808968C1212.9092456702292 -1055.7802527304407 1562.9949195353875 -1041.2640697836632 1692.793324082037 -667.8718583179225C1822.5917286286863 -294.47964685218176 1787.8132890899956 224.1584062899783 1502.9733408053794 747.8238951546573 "></path><path d="M1662.0125604424816 -642.4463974637198C1788.7205267856393 -277.9444767471632 1754.7701453312034 228.3450513201833 1476.7121005771728 739.5423142595128C1198.6540558231427 1250.7395771988417 828.7869361239855 1841.2596780448553 327.33394562313947 1811.3004646450636C-174.11904487770607 1781.341251245272 -883.2798672894928 1095.8833803362372 -930.2622538268837 595.7380899405102C-977.2446403642746 95.59279954478325 -272.9265339140202 -254.85422193765953 101.81849024366579 -589.3969292544244C476.56351440135177 -923.9396365711892 543.4734308385925 -999.0149326363542 868.5138621300121 -1010.0669051799564C1193.5542934214309 -1021.1188777235589 1535.3045940993238 -1006.9483181802761 1662.0125604424816 -642.4463974637198C1788.7205267856393 -277.9444767471632 1754.7701453312034 228.3450513201833 1476.7121005771728 739.5423142595128 "></path><path d="M1631.231766285348 -617.0209366095171C1754.8492944250138 -261.4093066421449 1721.7269710548326 232.5316963503883 1450.450829831388 731.2607333643682C1179.174688607944 1229.989770378348 818.3287181697415 1806.106941935434 329.10628841281914 1776.8784410575886C-160.11614134410343 1747.6499401797432 -851.9803583312125 1078.9105539270263 -897.8168330018377 590.9639291507071C-943.6533076724629 103.01730437438823 -256.5136916234343 -238.88222877921453 109.09120999382026 -565.2653578687411C474.6961116110749 -891.6484869582678 539.9740788669196 -964.8926782413554 857.0866947609875 -975.6750904790163C1174.199310655055 -986.457502716677 1507.6142381456816 -972.6325665768891 1631.231766285348 -617.0209366095171C1754.8492944250138 -261.4093066421449 1721.7269710548326 232.5316963503883 1450.450829831388 731.2607333643682 "></path><path d="M1600.4509416106357 -591.5953536850017C1720.9780315468101 -244.87401446681383 1688.6837662608832 236.71846345090626 1424.1895285680253 722.9792745395366C1159.6952908751673 1209.240085628167 807.8704696979196 1770.954327896326 330.87860068492046 1742.456539540427C-146.1132683280789 1713.958751184527 -820.6808798905104 1061.9378495881283 -865.37144269437 586.189890431217C-910.0620054982296 110.44193127430617 -240.1008798504265 -222.91011355045657 116.36389922639682 -541.1336644127451C472.82867830321993 -859.3572152750337 536.4746963776686 -930.7703017760441 845.6594968743848 -941.2831537077634C1154.8442973711003 -951.7960056394827 1479.9238516744617 -938.3166929031895 1600.4509416106357 -591.5953536850017C1720.9780315468101 -244.87401446681383 1688.6837662608832 236.71846345090626 1424.1895285680253 722.9792745395366 "></path><path d="M1569.6701779710802 -566.1697707604865C1687.1068297037632 -228.338722291483 1655.6406225020905 240.90523055142376 1397.9282883398187 714.6978157147046C1140.2159541775468 1188.4904008779854 797.4122822612544 1735.8017138572172 332.650973992178 1708.0346380232645C-132.11033427689836 1680.2675621893109 -789.3813404146518 1044.9651452492299 -832.9259913517458 581.4158517117266C-876.4706422888398 117.86655817422366 -223.6880070422626 -206.93799832169907 123.63664949412919 -517.0019709567493C470.9613060305212 -827.0659435917996 532.9753749235736 -896.647925310733 834.2323600229377 -906.8912169365108C1135.4893451223024 -917.1345085622885 1452.2335262383976 -904.0008192294899 1569.6701779710802 -566.1697707604865C1687.1068297037632 -228.338722291483 1655.6406225020905 240.90523055142376 1397.9282883398187 714.6978157147046 "></path><path d="M1538.8893532963684 -540.7444319765962C1653.2355668255595 -211.80367425677696 1622.5974177081416 245.09175351131626 1371.6669870764558 706.4161127492478C1120.73655644477 1167.7404719871788 786.9540337894327 1700.6488556774839 334.42328626427934 1673.612492365477C-118.10746126087383 1646.5761290534697 -758.0818619739497 1027.9921967697064 -800.480601044278 576.6415688516113C-842.8793401146064 125.29094093351614 -207.27519526925482 -190.96612723356634 130.90933872670576 -492.87052164137845C469.0938727226662 -794.7749160491906 529.4759924343225 -862.5257929860467 822.805162136335 -872.4995243058829C1116.1343318383479 -882.4732556257193 1424.5431397671778 -869.6851896964154 1538.8893532963684 -540.7444319765962C1653.2355668255595 -211.80367425677696 1622.5974177081416 245.09175351131626 1371.6669870764558 706.4161127492478 "></path><path d="M1508.108589656813 -515.3188490520809C1619.3643649825126 -195.2683820814459 1589.5542739493494 249.27852061183398 1345.4057468482497 698.1346539244159C1101.2572197471495 1146.9907872369977 776.4958463527673 1665.4962416383755 336.19565957153713 1639.1905908483145C-104.10452720969306 1612.8849400582535 -726.7823224980912 1011.0194924308084 -768.035149701654 571.8675301321211C-809.2879769052167 132.71556783343385 -190.8623224610908 -174.9940120048086 138.18208899443835 -468.73882818538254C467.2265004499675 -762.4836443659565 525.9766709802277 -828.4034165207354 811.3780252848885 -838.1075875346303C1096.7793795895495 -847.811758548525 1396.8528143311137 -835.3693160227158 1508.108589656813 -515.3188490520809C1619.3643649825126 -195.2683820814459 1589.5542739493494 249.27852061183398 1345.4057468482497 698.1346539244159 "></path><path d="M1477.3277649821011 -489.89338819787815C1585.493102104309 -178.73321197642747 1556.5110691554 253.4651656420392 1319.1444455848864 689.8530730292714C1081.7778220143728 1126.240980416504 766.0375978809457 1630.3435055289542 337.96797184363845 1604.7685672608395C-90.10165419366865 1579.1936289927248 -695.482844057389 994.0466660215975 -735.5897593941861 567.093369342318C-775.6966747309832 140.14007266303906 -174.44951068808314 -159.02201884636338 145.45477822701469 -444.60725679969914C465.3590671421123 -730.192494753035 522.4772884909764 -794.2811621257367 799.9508273982858 -803.7157728336899C1077.424366305595 -813.1503835416431 1369.1624278598933 -801.0535644193287 1477.3277649821011 -489.89338819787815C1585.493102104309 -178.73321197642747 1556.5110691554 253.4651656420392 1319.1444455848864 689.8530730292714 "></path><path d="M1446.5470013425456 -464.46780527336296C1551.6219002612615 -162.19791980109653 1523.4679253966074 257.6519327425567 1292.8832053566803 681.5716142044398C1062.2984853167527 1105.491295666323 755.5794104442803 1595.1908914898459 339.740345150896 1570.346665743677C-76.09872014248788 1545.5024399975086 -664.1833045815306 977.0739616826986 -703.1443080515621 562.3193306228279C-742.1053115215935 147.56469956295678 -158.0366378799191 -143.04990361760565 152.72752849474728 -420.47556334370324C463.4916948694138 -697.901223069801 518.9779670368816 -760.1587856604256 788.5236905468391 -769.3238360624372C1058.0694140567966 -778.4888864644489 1341.4721024238293 -766.7376907456292 1446.5470013425456 -464.46780527336296C1551.6219002612615 -162.19791980109653 1523.4679253966074 257.6519327425567 1292.8832053566803 681.5716142044398 "></path><path d="M1415.7661766678339 -439.04222234884764C1517.7506373830583 -145.6626276257656 1490.4247206026585 261.83869984307444 1266.6219040933174 673.2901553796078C1042.8190875839755 1084.7416109161409 745.1211619724586 1560.038277450737 341.51265742299756 1535.9247642265145C-62.09584712646347 1511.811251002292 -632.8838261408284 960.1012573438002 -670.6989177440943 557.5452919033373C-708.5140093473601 154.98932646287426 -141.62382610691145 -127.07778838884803 160.00021772732362 -396.34386988770757C461.62426156155857 -665.609951386567 515.4785845476306 -726.0364091951143 777.0964926602362 -734.9318992911844C1038.714400772842 -743.8273893872547 1313.7817159526094 -732.4218170719296 1415.7661766678339 -439.04222234884764C1517.7506373830583 -145.6626276257656 1490.4247206026585 261.83869984307444 1266.6219040933174 673.2901553796078 "></path><path d="M1384.9854130282783 -413.61663942433233C1483.8794355400114 -129.12733545043454 1457.3815768438662 266.02546694359216 1240.3606638651104 665.008696554776C1023.3397508863554 1063.9919261659597 734.6629745357932 1524.8856634116291 343.28503073025513 1501.502862709353C-48.092913075282695 1478.1200620070763 -601.58428666497 943.1285530049024 -638.2534664014702 552.7712531838472C-674.9226461379703 162.41395336279197 -125.21095329874743 -111.10567316009019 167.2729679950562 -372.21217643171155C459.75688928886007 -633.3186797033329 511.97926309353556 -691.914032729803 765.6693558087898 -700.5399625199317C1019.359448524044 -709.1658923100604 1286.0913905165453 -698.10594339823 1384.9854130282783 -413.61663942433233C1483.8794355400114 -129.12733545043454 1457.3815768438662 266.02546694359216 1240.3606638651104 665.008696554776 "></path><path d="M1354.2046188711447 -388.1911480525514C1450.0082031793854 -112.59213482783798 1424.338402567495 270.2121424913753 1214.0993931193261 656.7271461772098C1003.8603836711566 1043.2421498630442 724.2047565815496 1489.732957819786 345.0573735199346 1467.0808696394556C-34.09000954168016 1444.4287814591253 -570.2847777066897 926.1557571132698 -605.8080455764243 547.9971229116225C-641.3313134461588 169.8384887099753 -108.79811100816153 -95.13364948406695 174.54568774521067 -348.08057452845014C457.889486498583 -601.0274995728332 508.47991112186264 -657.7917478172262 754.2421884397652 -666.1481173014133C1000.0044657576675 -674.5044867856004 1258.401034562903 -663.7901612772648 1354.2046188711447 -388.1911480525514C1450.0082031793854 -112.59213482783798 1424.338402567495 270.2121424913753 1214.0993931193261 656.7271461772098 "></path><path d="M1323.423794196433 -362.7655651280361C1416.1369403011822 -96.05684265250704 1391.295197773546 274.3989095918928 1187.8380918559628 648.4456873523777C984.3809859383798 1022.4924651128629 713.746508109728 1454.5803437806771 346.82968579203634 1432.6589681222931C-20.087136525655637 1410.737592463909 -538.9852992659875 909.1830527743714 -573.3626552689564 543.2230841921321C-607.7400112719254 177.2631156098928 -92.38529923515387 -79.16153425530922 181.818376977787 -323.94888107245424C456.02205319072823 -568.7362278895991 504.9805286326116 -623.669371351915 742.8149905531625 -631.7561805301606C980.6494524737129 -639.8429897084062 1230.7106480916832 -629.4742876035652 1323.423794196433 -362.7655651280361C1416.1369403011822 -96.05684265250704 1391.295197773546 274.3989095918928 1187.8380918559628 648.4456873523777 "></path><path d="M1292.643030556877 -337.3402263441459C1382.2657384581348 -79.5217946178011 1358.2520540147534 278.58543255178574 1161.5768516277565 640.1639843869211C964.9016492407595 1001.7425362220565 703.2883206730623 1419.4274856009438 348.6020590992937 1398.236822464506C-6.084202474474978 1377.046159328068 -507.68575979012905 892.2101042948482 -540.9172039263324 538.4488013320167C-574.1486480625356 184.6874983691855 -75.97242642698984 -63.18966316717649 189.0911272455196 -299.81743175708334C454.15468091802927 -536.4452003469902 501.4812071785168 -589.5472390272287 731.3878537017156 -597.3644878995328C961.2945002249148 -605.181736771837 1203.020322655619 -595.1586580704907 1292.643030556877 -337.3402263441459C1382.2657384581348 -79.5217946178011 1358.2520540147534 278.58543255178574 1161.5768516277565 640.1639843869211 "></path><path d="M1261.8622058821652 -311.9146434196307C1348.3944755799312 -62.98650244247017 1325.2088492208045 282.77219965230324 1135.3155503643934 631.8825255620891C945.4222515079825 980.9928514718752 692.8300722012409 1384.2748715618354 350.3743713713952 1363.8149209473436C7.918670541549432 1343.3549703328517 -476.3862813494269 875.2373999559497 -508.47181361886453 533.6747626125264C-540.5573458883023 192.11212526910322 -59.55961465398218 -47.217547938418875 196.36381647809594 -275.68573830108744C452.2872476101743 -504.1539286637561 497.9818246892655 -555.4248625619175 719.9606558151129 -562.9725511282801C941.9394869409603 -570.5202396946427 1175.329936184399 -560.8427843967911 1261.8622058821652 -311.9146434196307C1348.3944755799312 -62.98650244247017 1325.2088492208045 282.77219965230324 1135.3155503643934 631.8825255620891 "></path><path d="M1231.0814422426097 -286.4890604951154C1314.5232737368842 -46.45121026713923 1292.1657054620118 286.95896675282074 1109.054310136187 623.6010667372573C925.9429148103623 960.2431667216938 682.3718847645755 1349.122257522727 352.1467446786528 1329.393019430181C21.92160459273009 1309.6637813376356 -445.0867418735684 858.2646956170515 -476.0263622762405 528.900723893036C-506.9659826789125 199.53675216902093 -43.146741845818156 -31.245432709661145 203.63656674582853 -251.55404484509154C450.41987533747556 -471.8626569805221 494.4825032351707 -521.3024860966063 708.5335189636664 -528.5806143570273C922.5845346921622 -535.8587426174483 1147.6396107483351 -526.5269107230915 1231.0814422426097 -286.4890604951154C1314.5232737368842 -46.45121026713923 1292.1657054620118 286.95896675282074 1109.054310136187 623.6010667372573 "></path><path d="M1200.3006175678981 -261.06359964091257C1280.652010858681 -29.91604016212068 1259.122500668063 291.14561178302597 1082.7930088728242 615.3194858421127C906.4635170775855 939.4933599011997 671.9136362927538 1313.9695214133058 353.9190569507541 1294.970995842706C35.924477608754614 1275.9724702721069 -413.78726343286627 841.2918692078406 -443.58097196877264 524.1265631032334C-473.3746805046791 206.9612569986257 -26.73393007281038 -15.273439551215915 210.9092559784051 -227.42247345940825C448.5524420296206 -439.5715073676006 490.9831207459197 -487.18023170160757 697.1063210770635 -494.1887996560871C903.2295214082076 -501.19736761056663 1119.949224277115 -492.2111591197045 1200.3006175678981 -261.06359964091257C1280.652010858681 -29.91604016212068 1259.122500668063 291.14561178302597 1082.7930088728242 615.3194858421127 "></path><path d="M1169.5198539283424 -235.63813878670976C1246.7808090156336 -13.380870057102129 1226.0793569092702 295.3322568132312 1056.5317686446176 607.0379049469686C886.984180379965 918.7435530807061 661.4554488560884 1278.816785303885 355.6914302580119 1260.548972255231C49.92741165993539 1242.2811592065782 -382.4877239570078 824.3190427986297 -411.1355206261486 519.3524023134305C-439.78331729528935 214.3857618282309 -10.32105726464647 0.6985536072293144 218.1820062461377 -203.29090207372485C446.68506975692185 -407.280357754679 487.48379929182465 -453.0579773066088 685.6791842256171 -459.79698495514685C883.8745691594092 -466.53599260368486 1092.2588988410512 -457.89540751631745 1169.5198539283424 -235.63813878670976C1246.7808090156336 -13.380870057102129 1226.0793569092702 295.3322568132312 1056.5317686446176 607.0379049469686 "></path><path d="M1138.7390597712085 -210.21255586219456C1212.9095766550083 3.1544221182286947 1193.0361826328995 299.5190239137487 1030.270497898833 598.7564461221366C867.5048131647663 897.9938683305245 650.9972309018449 1243.664171264776 357.4637730476916 1226.1270707380688C63.93031519353792 1208.5899702113616 -351.1882149987275 807.3463384597314 -378.69009980110263 514.5783635939399C-406.1919846034778 221.8103887281486 6.09178502593943 16.670668835987044 225.45472599629215 -179.15920861772906C444.817666966645 -374.989086071445 483.98444732015173 -418.93560084129757 674.2520168565923 -425.4050481838941C864.519586393033 -431.8744955264906 1064.568542887409 -423.5795338426179 1138.7390597712085 -210.21255586219456C1212.9095766550083 3.1544221182286947 1193.0361826328995 299.5190239137487 1030.270497898833 598.7564461221366 "></path><path d="M1107.958265614075 -184.78697293767925C1179.038344294383 19.689714293559746 1159.9930083565287 303.7057910142662 1004.0092271530482 590.4749872973048C848.0254459495679 877.2441835803434 640.5390129476013 1208.5115572256677 359.236115837371 1191.7051692209068C77.93321872714057 1174.8987812161454 -319.8887060404472 790.3736341208332 -346.2446789760567 509.8043248744498C-372.6006519116662 229.23501562806632 22.50462731652533 32.642784064744774 232.72744574644673 -155.02751516173316C442.9502641763679 -342.697814388211 480.4850953484788 -384.81322437598635 662.8248494875677 -391.01311141264136C845.1646036266566 -397.2129984492963 1036.878186933767 -389.2636601689183 1107.958265614075 -184.78697293767925C1179.038344294383 19.689714293559746 1159.9930083565287 303.7057910142662 1004.0092271530482 590.4749872973048 "></path><path d="M1077.1774714569412 -159.36151208347655C1145.1671119337575 36.22488439857807 1126.9498340801579 307.8924360444714 977.7479564072635 582.1934064021602C828.5460787343691 856.4943767598493 630.0807949933578 1173.3588211162466 361.00845862705046 1157.2831456334318C91.9361222607431 1141.2074701506167 -288.5891970821669 773.4008077116223 -313.79925815101075 505.0301640846469C-339.00931921985466 236.65952045767142 38.917469607111116 48.61477722318989 240.0001654966012 -130.89594377604976C441.0828613860913 -310.4066647752894 476.98574337680566 -350.69096998098763 651.3976821185429 -356.6212967117011C825.8096208602801 -362.55162344241455 1009.187830980125 -354.94790856553124 1077.1774714569412 -159.36151208347655C1145.1671119337575 36.22488439857807 1126.9498340801579 307.8924360444714 977.7479564072635 582.1934064021602 "></path><path d="M1046.3966772998076 -133.93592915896124C1111.2958795731322 52.76017657390912 1093.9066598037869 312.07920314498915 951.4866856614788 573.9119475773286C809.0667115191707 835.7446920096679 619.6225770391143 1138.2062070771383 362.7808014167299 1122.8612441162693C105.93902579434575 1107.5162811554003 -257.28968812388655 756.4281033727241 -281.35383732596483 500.25612536515655C-305.41798652804306 244.08414735758902 55.330311897697015 64.58689245194762 247.27288524675566 -106.76425032005386C439.2154585958142 -278.1153930920554 473.48639140513296 -316.5685935156764 639.9705147495183 -322.2293599404483C806.4546380939037 -327.8901263652203 981.4974750264828 -320.63203489183167 1046.3966772998076 -133.93592915896124C1111.2958795731322 52.76017657390912 1093.9066598037869 312.07920314498915 951.4866856614788 573.9119475773286 "></path><path d="M1015.615883142674 -108.51046830475855C1077.424647212507 69.29534667892756 1060.8634855274163 316.26584817519415 925.225414915694 565.6303666821841C789.587344303972 814.994885189174 609.1643590848707 1103.053470967717 364.55314420640957 1088.4392205287943C119.94192932794829 1073.8249700898716 -225.99017916560626 739.4552769635131 -248.90841650091886 495.4819645753537C-271.8266538362315 251.50865218719412 71.74315418828292 80.55888561039274 254.54560499691013 -82.63267893437057C437.34805580553757 -245.82424347913383 469.9870394334598 -282.4463391206777 628.5433473804937 -287.8375452395081C787.0996553275274 -293.2287513583385 953.8071190728408 -286.31628328844454 1015.615883142674 -108.51046830475855C1077.424647212507 69.29534667892756 1060.8634855274163 316.26584817519415 925.225414915694 565.6303666821841 "></path><path d="M984.835058467962 -83.08494641539949C1043.5533843343035 85.83057781910225 1027.8202807334671 320.4525542405556 898.9641136523312 557.348846822196C770.1079465711953 794.2451394038364 598.7061106130491 1067.9007958934524 366.3254564785109 1054.017257976476C133.9448023439727 1040.1337200594992 -194.69070072490405 722.4825115894587 -216.46302619345107 490.7078648207071C-238.23535166199804 258.9332180519556 88.15596596129058 96.53093980399422 261.81829422948647 -58.50104651353092C435.4806224976825 -213.53303283105606 466.48765694420854 -248.32402369052272 617.1161494938906 -253.44566950341158C767.7446420435731 -258.5673153163005 926.1167326016207 -252.00047064990122 984.835058467962 -83.08494641539949C1043.5533843343035 85.83057781910225 1027.8202807334671 320.4525542405556 898.9641136523312 557.348846822196 "></path><path d="M954.0542948284065 -57.659424526040425C1009.6821824912563 102.36580895927705 994.7771369746747 324.639260305917 872.7028734241248 549.067326962208C750.6286098735748 773.4953936184988 588.2479231763837 1032.7481208191878 368.09782978576857 1019.5952954241573C147.94773639515347 1006.4424700291268 -163.39116124904564 705.5097462154042 -184.01757485082697 485.93376506606046C-204.64398845260837 266.3577839167169 104.5688387694546 112.5029939975957 269.0910444972192 -34.36941409269127C433.61325022498374 -181.24182218297824 462.98833549011385 -214.20170826036775 605.6890126424441 -219.05379376731509C748.3896897947748 -223.90587927426247 898.4264071655568 -217.6846580113579 954.0542948284065 -57.659424526040425C1009.6821824912563 102.36580895927705 994.7771369746747 324.639260305917 872.7028734241248 549.067326962208 "></path><path d="M923.2734701536947 -32.23384160152523C975.8109196130526 118.90110113460798 961.7339321807256 328.8260274064346 846.441572160762 540.7858681373762C731.1492121407982 752.7457088683177 577.789674704562 997.5955067800792 369.8701420578699 985.1733939069948C161.950609411178 972.7512810339106 -132.09168280834342 688.5370418765056 -151.57218454335919 481.1597263465701C-171.0526862783749 273.78241081663464 120.98165054246238 128.47510922635342 276.3637337297955 -10.237720636695371C431.74581691712876 -148.95055049974422 459.4889530008627 -180.07933179505648 594.2618147558414 -184.66185699606234C729.0346765108202 -189.2443821970682 870.7360206943365 -183.36878433765833 923.2734701536947 -32.23384160152523C975.8109196130526 118.90110113460798 961.7339321807256 328.8260274064346 846.441572160762 540.7858681373762 "></path><path d="M892.4927065141392 -6.808380747322417C941.9397177700057 135.43627123962642 928.6907884219331 333.01267243663983 820.1803319325552 532.5042872422318C711.6698754431777 731.9959020478236 567.3314872678966 962.4427706706583 371.64251536512757 950.7513703195202C175.95354346235865 939.0599699683819 -100.79214333248501 671.5642154672951 -119.12673320073509 476.38556555676735C-137.46132306898517 281.20691564623974 137.3945233506263 144.44710238479865 283.6364839975281 13.893850748987916C429.87844464443003 -116.65940088682271 455.9896315467678 -145.95707740005776 582.834677904395 -150.2700422951221C709.6797242620219 -154.58300719018644 843.0456952582726 -149.05303273427126 892.4927065141392 -6.808380747322417C941.9397177700057 135.43627123962642 928.6907884219331 333.01267243663983 820.1803319325552 532.5042872422318 "></path><path d="M861.7119123570055 18.617202177192894C908.0684854093802 151.97156341495747 895.6476141455621 337.19943953715733 793.9190611867705 524.2228284173998C692.1905082279791 711.2462172976425 556.873269313653 927.2901566315495 373.41485815480723 916.3294688023575C189.9564469959612 905.3687809731655 -69.49263437420467 654.5915111283966 -86.68131237568917 471.611526837277C-103.86999037717362 288.63154254615733 153.80736564121207 160.41921761355638 290.90920374768257 38.02554420498382C428.0110418541532 -84.36812920358864 452.49027957509486 -111.83470093474654 571.4075105353703 -115.87810552386935C690.3247414956454 -119.92151011299217 815.3553393046307 -114.73715906057168 861.7119123570055 18.617202177192894C908.0684854093802 151.97156341495747 895.6476141455621 337.19943953715733 793.9190611867705 524.2228284173998 "></path><path d="M830.9311181998717 44.04266303139559C874.1972530487546 168.5067335199758 862.6044398691913 341.38608456736256 767.6577904409858 515.9412475222555C672.7111410127804 690.4964104771484 546.4150513594095 892.1374205221287 375.1872009444867 881.9074452148827C203.95935052956384 871.6774699076368 -38.193125415924385 637.6186847191857 -54.2358915506432 466.8373660474741C-70.27865768536202 296.05604737576255 170.22020793179797 176.3912107720015 298.18192349783703 62.15711559066722C426.1436390638762 -52.07697959066712 448.9909276034218 -77.71244653974782 559.9803431663455 -81.4862908229291C670.9697587292692 -85.2601351061104 787.6649833509887 -80.42140745718461 830.9311181998717 44.04266303139559C874.1972530487546 168.5067335199758 862.6044398691913 341.38608456736256 767.6577904409858 515.9412475222555 "></path><path d="M800.1503240427382 69.46818492075465C840.3260206881296 185.0419646601506 829.5612655928205 345.5727906327239 741.3965196952013 507.6597276622673C653.2317737975818 669.7466646918108 535.956833405166 856.9847454478638 376.9595437341661 847.485482662564C217.96225406316637 837.9862198772644 -6.893616457644043 620.6459193451312 -21.790470725597288 462.0632662928276C-36.687324993550476 303.4806132405238 186.63305022238387 192.36326496560298 305.4546432479916 86.28874801150681C424.27623627359935 -19.785768942589357 445.4915756317489 -43.590131109592846 548.5531757973208 -47.09441508683261C651.6147759628928 -50.59869906407238 759.9746273973465 -46.10559481864129 800.1503240427382 69.46818492075465C840.3260206881296 185.0419646601506 829.5612655928205 345.5727906327239 741.3965196952013 507.6597276622673 "></path><path d="M769.3695298856042 94.8937678452699C806.454788327504 201.57725683548153 796.5180913164497 349.75955773324154 715.1352489494166 499.3782688374355C633.7524065823832 648.9969799416294 525.4986154509224 821.8321314087552 378.7318865238458 813.0635811454017C231.9651575967689 804.295030882048 24.40589250063624 603.6732150062329 10.654950099448683 457.28922757333714C-3.0959923017388746 310.9052401404415 203.04589251296966 208.3353801943607 312.7273629981461 110.42044146750266C422.4088334833225 12.505502740644715 441.99222366007587 -9.467754644281626 537.1260084282961 -12.702478315579867C632.2597931965165 -15.937201986878108 732.2842714437045 -11.789721144941723 769.3695298856042 94.8937678452699C806.454788327504 201.57725683548153 796.5180913164497 349.75955773324154 715.1352489494166 499.3782688374355 "></path><path d="M738.5887357284705 120.31928973462891C772.5835559668787 218.11248797565622 763.4749170400789 353.9462637986029 688.8739782036317 491.0967489774473C614.2730393671845 628.2472341562918 515.0403974966789 786.6794563344906 380.50422931352523 778.641618593083C245.96806113037155 770.6037808516755 55.70540145891658 586.7004496321783 43.1003709244946 452.51512781869064C30.49534039007267 318.32980600520295 219.45873480355556 224.30743438796208 320.00008274830066 134.5520738883423C420.54143069304564 44.79671338872248 438.49287168840283 24.654560785873343 525.6988410592714 21.689397420516627C612.9048104301401 18.72423405515991 704.5939154900625 22.526091493601598 738.5887357284705 120.31928973462891C772.5835559668787 218.11248797565622 763.4749170400789 353.9462637986029 688.8739782036317 491.0967489774473 "></path><path d="M707.8079110537589 145.74475058883166C738.7122930886753 234.64765808067477 730.43171224613 358.132908828808 662.6126769402689 482.815168082303C594.7936416344079 607.497427335798 504.58214902485724 751.5267202250693 382.27654158562666 744.219595005608C259.9709341463961 736.9124697861466 87.00487989961874 569.7276232229675 75.54576123196244 447.7409670288878C64.08664256430615 325.75431083480794 235.87154657656333 240.2794275464073 327.272771980877 158.68364527402565C418.67399738519066 77.087863001644 434.9934891991518 58.77681518087212 514.2716431726687 56.08121212145687C593.5497971461856 53.38560906204168 676.9035290188423 56.84184309698867 707.8079110537589 145.74475058883166C738.7122930886753 234.64765808067477 730.43171224613 358.132908828808 662.6126769402689 482.815168082303 "></path><path d="M677.0271474142032 171.17027247819072C704.8410912456281 251.18288922084946 697.3885684873374 362.3196148941695 636.3514367120624 474.5336482223149C575.3143049367874 586.7476815504604 494.12396158819183 716.3740451508048 384.04891489288434 709.7976324532896C273.97386819757673 703.2212197557743 118.30441937547721 552.754857848913 107.99121257458648 442.96686727424117C97.67800577369582 333.1788766995694 252.2844193847273 256.2514817400088 334.5455222486096 182.8152776948653C416.80662511249193 109.37907364972182 431.494167745057 92.89913061102709 502.84450632122207 90.47308785755337C574.1948448973874 88.0470451040797 649.2132035827784 91.15765573553199 677.0271474142032 171.17027247819072C704.8410912456281 251.18288922084946 697.3885684873374 362.3196148941695 636.3514367120624 474.5336482223149 "></path><path d="M646.2463532570696 196.59582488512785C670.9698588850029 267.7181508786023 664.3453942109666 366.506351477109 610.0901659662776 466.252158879905C555.8349377215889 565.9979662827009 483.6657436339483 681.2214005941182 385.8212576825638 675.3757004185492C287.9767717311793 669.53000024298 149.6039283337575 535.7821229924366 140.43663339963246 438.1927980371727C131.26933846550742 340.603473081909 268.69726167531314 272.2235664511884 341.81824199876405 206.94694063328302C414.9392223222151 141.6703148153777 427.99481577338383 127.02147655876018 491.4173389521975 124.86499411122799C554.8398621310109 122.70851166369584 621.5228476291363 125.47349889165343 646.2463532570696 196.59582488512785C670.9698588850029 267.7181508786023 664.3453942109666 366.506351477109 610.0901659662776 466.252158879905 "></path><path d="M615.4655590999358 222.0213315156978C637.0986265243773 284.2533667599879 631.3022199345957 370.6930422836813 583.8288952204929 457.97062376112774C536.3555705063902 545.2482052385742 473.20752567970476 646.0687102610643 387.59360047224334 640.9537226074414C301.9796752647819 635.8387349538184 180.90343729203784 518.8093423595928 172.88205422467837 433.418683023737C164.86067115731896 348.0280236878813 285.110103965899 288.19560538600075 349.0909617489185 231.0785577953336C413.0718195319381 173.9615102046664 424.4954638017109 161.1437767301261 479.9901715831727 159.25685458853548C535.4848793646346 157.3699324469448 593.8324916754943 159.7892962714077 615.4655590999358 222.0213315156978C637.0986265243773 284.2533667599879 631.3022199345957 370.6930422836813 583.8288952204929 457.97062376112774 "></path><path d="M584.6847649428021 247.44688392263492C603.227394163752 300.78862841774077 598.2590456582249 374.87977886662077 557.5676244747083 449.6891344187177C516.8762032911916 524.4984899708147 462.7493077254612 610.9160657043776 389.3659432619229 606.5317905727009C315.98257879838445 602.147515441024 212.20294625031812 501.8366075031165 205.32747504972434 428.6446137866685C198.45200384913056 355.45262007022075 301.52294625648483 304.16769009718035 356.36368149907304 255.21022073375133C411.20441674166125 206.25275137032236 420.996111830038 195.2661226778592 468.5630042141481 193.6487608422101C516.1298965982583 192.03139900656095 566.1421357218522 194.10513942752914 584.6847649428021 247.44688392263492C603.227394163752 300.78862841774077 598.2590456582249 374.87977886662077 557.5676244747083 449.6891344187177 "></path><path d="M553.9039707856684 272.87237529441586C569.3561618031267 317.3238290403374 565.2158713818541 379.066454414404 531.3063537289236 441.4075840411515C497.39683607599295 503.748713667899 452.2910897712177 575.7633601125347 391.1382860516024 572.109797502804C329.9854823319871 568.4562348930733 243.50245520859846 484.8638116114837 237.77289587477026 423.8704835144439C232.0433365409421 362.87715541740397 317.93578854707073 320.13971377320365 363.63640124922756 279.34182263701285C409.3370139513844 238.543931500822 417.49675985836495 229.38840759043603 457.13583684512344 228.04060606072846C496.7749138318818 226.69280453102084 538.4517797682101 228.42092154849433 553.9039707856684 272.87237529441586C569.3561618031267 317.3238290403374 565.2158713818541 379.066454414404 531.3063537289236 441.4075840411515 "></path><path d="M523.1231766285348 298.297927701353C535.4849294425014 333.8590906980902 532.1726971054833 383.25319099734355 505.04508298313885 433.12609469874155C477.91746886079443 482.9989984001395 441.83287181697415 540.6107155558482 392.9106288412819 537.6878654680636C343.98838586558963 534.765015380279 274.80196416687875 467.89107675500736 270.2183166998162 419.0964142773754C265.6346692327537 370.30175179974356 334.3486308376566 336.11179848438326 370.909120999382 303.4734855754306C407.46961116110754 270.83517266647794 413.9974078866919 263.5107535381691 445.70866947609875 262.4325123144031C477.41993106550547 261.354271090637 510.76142381456816 262.7367647046158 523.1231766285348 298.297927701353C535.4849294425014 333.8590906980902 532.1726971054833 383.25319099734355 505.04508298313885 433.12609469874155 "></path><path d="M492.34238247140104 323.72341907313387C501.613697081876 350.3942913206868 499.1295228291124 387.4398665451268 478.78381223735414 424.84454432117525C458.4381016455958 462.24922209722376 431.3746538627306 505.4580099640052 394.68297163096145 503.26587239816683C357.9912893991922 501.07373483232846 306.1014731251591 450.91828086337466 302.66373752486214 414.32228400515066C299.22600192456525 377.7262871469268 350.7614731282424 352.08382216040656 378.1818407495365 327.6050874786921C405.6022083708306 303.1263527969776 410.498055915019 297.633038450746 434.28150210707406 296.82435753292145C458.0649482991291 296.0156766150969 483.0710678609262 297.052546825581 492.34238247140104 323.72341907313387C501.613697081876 350.3942913206868 499.1295228291124 387.4398665451268 478.78381223735414 424.84454432117525 "></path><path d="M461.5615883142674 349.148956221282C467.7424647212507 366.92953771965057 466.08634855274164 391.6265878692773 452.5225414915694 416.56303971997625C438.9587344303972 441.4994915706752 420.9164359084871 470.30535014852956 396.45531442064095 468.84392510463726C371.9941929327948 467.382500060745 337.4009820834394 433.94553074810915 335.1091583499081 409.54819950929317C332.81733461637685 385.15086827047725 367.1743154188283 368.0558916127971 385.454560499691 351.73673515832076C403.73480558055377 335.4175787038444 406.99870394334596 331.75536913969006 422.8543347380494 331.216248527807C438.70996553275273 330.67712791592396 455.3807119072841 331.36837472291336 461.5615883142674 349.148956221282C467.7424647212507 366.92953771965057 466.08634855274164 391.6265878692773 452.5225414915694 416.56303971997625 "></path><path d="M430.7807941571337 374.574478110641C433.87123236062536 383.4647688598253 433.0431742763708 395.81329393463864 426.2612707457847 408.2815198599881C419.47936721519864 420.7497457853376 410.45821795424354 435.1526750742648 398.22765721032044 434.42196255231863C385.9970964663974 433.6912500303725 368.7004910417197 416.9727653740546 367.55457917495403 404.7740997546466C366.4086673081884 392.5754341352386 383.58715770941416 384.0279458063985 392.72728024984553 375.8683675791604C401.86740279027686 367.70878935192223 403.499351971673 365.87768456984503 411.4271673690247 365.6081242639035C419.3549827663764 365.338563957962 427.69035595364204 365.6841873614567 430.7807941571337 374.574478110641C433.87123236062536 383.4647688598253 433.0431742763708 395.81329393463864 426.2612707457847 408.2815198599881 "></path></g></svg>